<svg width="48" height="48" viewBox="0 0 48 48" fill="none" xmlns="http://www.w3.org/2000/svg">
<g clip-path="url(#clip0_776_954)">
<path d="M48 24C48 37.2548 37.2548 48 24 48C10.7452 48 0 37.2548 0 24C0 10.7452 10.7452 0 24 0C37.2548 0 48 10.7452 48 24Z" fill="#276AED"/>
<path d="M2.17938 34.007C3.36717 31.4133 5.00893 29.0499 7.02944 27.0294C9.25804 24.8008 11.9038 23.033 14.8156 21.8269C17.7274 20.6208 20.8483 20 24 20C27.1517 20 30.2726 20.6208 33.1844 21.8269C36.0962 23.033 38.742 24.8008 40.9706 27.0294C42.9911 29.0499 44.6328 31.4133 45.8206 34.007C43.9495 38.0805 40.9712 41.5399 37.2712 44H10.7288C7.02881 41.5399 4.05055 38.0805 2.17938 34.007Z" fill="#201658"/>
<path d="M7 40.9411V40.803C7 33.6286 12.6888 27.8485 19.75 27.8485H28.25C35.3112 27.8485 41 33.6286 41 40.803V40.9411C36.6545 45.3015 30.6424 48 24 48C17.3576 48 11.3455 45.3015 7 40.9411Z" fill="#D8D9DA"/>
<path d="M15.5 18.6364C15.5 13.8684 19.3073 10 24 10C28.6927 10 32.5 13.8684 32.5 18.6364C32.5 23.4044 28.6927 27.2727 24 27.2727C19.3073 27.2727 15.5 23.4044 15.5 18.6364Z" fill="#D8D9DA"/>
</g>
<defs>
<clipPath id="clip0_776_954">
<rect width="48" height="48" fill="white"/>
</clipPath>
</defs>
</svg>
