<svg width="24" height="24" viewBox="0 0 24 24" fill="none" xmlns="http://www.w3.org/2000/svg">
<path d="M22 6.75V17.25C22 18.4926 20.9668 19.5 19.6923 19.5H4.30769C3.03319 19.5 2 18.4926 2 17.25V6.75M22 6.75C22 5.50736 20.9668 4.5 19.6923 4.5H4.30769C3.03319 4.5 2 5.50736 2 6.75M22 6.75V6.99271C22 7.77405 21.5843 8.49945 20.9018 8.90894L13.2095 13.5243C12.4677 13.9694 11.5323 13.9694 10.7905 13.5243L3.09824 8.90894C2.41574 8.49945 2 7.77405 2 6.99271V6.75" stroke="#1A1A1A" stroke-width="1.5" stroke-linecap="round" stroke-linejoin="round"/>
<path d="M22 6.75V17.25C22 18.4926 20.9668 19.5 19.6923 19.5H4.30769C3.03319 19.5 2 18.4926 2 17.25V6.75M22 6.75C22 5.50736 20.9668 4.5 19.6923 4.5H4.30769C3.03319 4.5 2 5.50736 2 6.75M22 6.75V6.99271C22 7.77405 21.5843 8.49945 20.9018 8.90894L13.2095 13.5243C12.4677 13.9694 11.5323 13.9694 10.7905 13.5243L3.09824 8.90894C2.41574 8.49945 2 7.77405 2 6.99271V6.75" stroke="black" stroke-opacity="0.2" stroke-width="1.5" stroke-linecap="round" stroke-linejoin="round"/>
<path d="M22 6.75V17.25C22 18.4926 20.9668 19.5 19.6923 19.5H4.30769C3.03319 19.5 2 18.4926 2 17.25V6.75M22 6.75C22 5.50736 20.9668 4.5 19.6923 4.5H4.30769C3.03319 4.5 2 5.50736 2 6.75M22 6.75V6.99271C22 7.77405 21.5843 8.49945 20.9018 8.90894L13.2095 13.5243C12.4677 13.9694 11.5323 13.9694 10.7905 13.5243L3.09824 8.90894C2.41574 8.49945 2 7.77405 2 6.99271V6.75" stroke="black" stroke-opacity="0.2" stroke-width="1.5" stroke-linecap="round" stroke-linejoin="round"/>
<path d="M22 6.75V17.25C22 18.4926 20.9668 19.5 19.6923 19.5H4.30769C3.03319 19.5 2 18.4926 2 17.25V6.75M22 6.75C22 5.50736 20.9668 4.5 19.6923 4.5H4.30769C3.03319 4.5 2 5.50736 2 6.75M22 6.75V6.99271C22 7.77405 21.5843 8.49945 20.9018 8.90894L13.2095 13.5243C12.4677 13.9694 11.5323 13.9694 10.7905 13.5243L3.09824 8.90894C2.41574 8.49945 2 7.77405 2 6.99271V6.75" stroke="black" stroke-opacity="0.2" stroke-width="1.5" stroke-linecap="round" stroke-linejoin="round"/>
<path d="M22 6.75V17.25C22 18.4926 20.9668 19.5 19.6923 19.5H4.30769C3.03319 19.5 2 18.4926 2 17.25V6.75M22 6.75C22 5.50736 20.9668 4.5 19.6923 4.5H4.30769C3.03319 4.5 2 5.50736 2 6.75M22 6.75V6.99271C22 7.77405 21.5843 8.49945 20.9018 8.90894L13.2095 13.5243C12.4677 13.9694 11.5323 13.9694 10.7905 13.5243L3.09824 8.90894C2.41574 8.49945 2 7.77405 2 6.99271V6.75" stroke="black" stroke-opacity="0.2" stroke-width="1.5" stroke-linecap="round" stroke-linejoin="round"/>
<path d="M22 6.75V17.25C22 18.4926 20.9668 19.5 19.6923 19.5H4.30769C3.03319 19.5 2 18.4926 2 17.25V6.75M22 6.75C22 5.50736 20.9668 4.5 19.6923 4.5H4.30769C3.03319 4.5 2 5.50736 2 6.75M22 6.75V6.99271C22 7.77405 21.5843 8.49945 20.9018 8.90894L13.2095 13.5243C12.4677 13.9694 11.5323 13.9694 10.7905 13.5243L3.09824 8.90894C2.41574 8.49945 2 7.77405 2 6.99271V6.75" stroke="black" stroke-opacity="0.2" stroke-width="1.5" stroke-linecap="round" stroke-linejoin="round"/>
<path d="M22 6.75V17.25C22 18.4926 20.9668 19.5 19.6923 19.5H4.30769C3.03319 19.5 2 18.4926 2 17.25V6.75M22 6.75C22 5.50736 20.9668 4.5 19.6923 4.5H4.30769C3.03319 4.5 2 5.50736 2 6.75M22 6.75V6.99271C22 7.77405 21.5843 8.49945 20.9018 8.90894L13.2095 13.5243C12.4677 13.9694 11.5323 13.9694 10.7905 13.5243L3.09824 8.90894C2.41574 8.49945 2 7.77405 2 6.99271V6.75" stroke="black" stroke-opacity="0.2" stroke-width="1.5" stroke-linecap="round" stroke-linejoin="round"/>
<path d="M22 6.75V17.25C22 18.4926 20.9668 19.5 19.6923 19.5H4.30769C3.03319 19.5 2 18.4926 2 17.25V6.75M22 6.75C22 5.50736 20.9668 4.5 19.6923 4.5H4.30769C3.03319 4.5 2 5.50736 2 6.75M22 6.75V6.99271C22 7.77405 21.5843 8.49945 20.9018 8.90894L13.2095 13.5243C12.4677 13.9694 11.5323 13.9694 10.7905 13.5243L3.09824 8.90894C2.41574 8.49945 2 7.77405 2 6.99271V6.75" stroke="black" stroke-opacity="0.2" stroke-width="1.5" stroke-linecap="round" stroke-linejoin="round"/>
<path d="M22 6.75V17.25C22 18.4926 20.9668 19.5 19.6923 19.5H4.30769C3.03319 19.5 2 18.4926 2 17.25V6.75M22 6.75C22 5.50736 20.9668 4.5 19.6923 4.5H4.30769C3.03319 4.5 2 5.50736 2 6.75M22 6.75V6.99271C22 7.77405 21.5843 8.49945 20.9018 8.90894L13.2095 13.5243C12.4677 13.9694 11.5323 13.9694 10.7905 13.5243L3.09824 8.90894C2.41574 8.49945 2 7.77405 2 6.99271V6.75" stroke="black" stroke-opacity="0.2" stroke-width="1.5" stroke-linecap="round" stroke-linejoin="round"/>
<path d="M22 6.75V17.25C22 18.4926 20.9668 19.5 19.6923 19.5H4.30769C3.03319 19.5 2 18.4926 2 17.25V6.75M22 6.75C22 5.50736 20.9668 4.5 19.6923 4.5H4.30769C3.03319 4.5 2 5.50736 2 6.75M22 6.75V6.99271C22 7.77405 21.5843 8.49945 20.9018 8.90894L13.2095 13.5243C12.4677 13.9694 11.5323 13.9694 10.7905 13.5243L3.09824 8.90894C2.41574 8.49945 2 7.77405 2 6.99271V6.75" stroke="black" stroke-opacity="0.2" stroke-width="1.5" stroke-linecap="round" stroke-linejoin="round"/>
<path d="M22 6.75V17.25C22 18.4926 20.9668 19.5 19.6923 19.5H4.30769C3.03319 19.5 2 18.4926 2 17.25V6.75M22 6.75C22 5.50736 20.9668 4.5 19.6923 4.5H4.30769C3.03319 4.5 2 5.50736 2 6.75M22 6.75V6.99271C22 7.77405 21.5843 8.49945 20.9018 8.90894L13.2095 13.5243C12.4677 13.9694 11.5323 13.9694 10.7905 13.5243L3.09824 8.90894C2.41574 8.49945 2 7.77405 2 6.99271V6.75" stroke="black" stroke-opacity="0.2" stroke-width="1.5" stroke-linecap="round" stroke-linejoin="round"/>
<path d="M22 6.75V17.25C22 18.4926 20.9668 19.5 19.6923 19.5H4.30769C3.03319 19.5 2 18.4926 2 17.25V6.75M22 6.75C22 5.50736 20.9668 4.5 19.6923 4.5H4.30769C3.03319 4.5 2 5.50736 2 6.75M22 6.75V6.99271C22 7.77405 21.5843 8.49945 20.9018 8.90894L13.2095 13.5243C12.4677 13.9694 11.5323 13.9694 10.7905 13.5243L3.09824 8.90894C2.41574 8.49945 2 7.77405 2 6.99271V6.75" stroke="black" stroke-opacity="0.2" stroke-width="1.5" stroke-linecap="round" stroke-linejoin="round"/>
<path d="M22 6.75V17.25C22 18.4926 20.9668 19.5 19.6923 19.5H4.30769C3.03319 19.5 2 18.4926 2 17.25V6.75M22 6.75C22 5.50736 20.9668 4.5 19.6923 4.5H4.30769C3.03319 4.5 2 5.50736 2 6.75M22 6.75V6.99271C22 7.77405 21.5843 8.49945 20.9018 8.90894L13.2095 13.5243C12.4677 13.9694 11.5323 13.9694 10.7905 13.5243L3.09824 8.90894C2.41574 8.49945 2 7.77405 2 6.99271V6.75" stroke="black" stroke-opacity="0.2" stroke-width="1.5" stroke-linecap="round" stroke-linejoin="round"/>
<path d="M22 6.75V17.25C22 18.4926 20.9668 19.5 19.6923 19.5H4.30769C3.03319 19.5 2 18.4926 2 17.25V6.75M22 6.75C22 5.50736 20.9668 4.5 19.6923 4.5H4.30769C3.03319 4.5 2 5.50736 2 6.75M22 6.75V6.99271C22 7.77405 21.5843 8.49945 20.9018 8.90894L13.2095 13.5243C12.4677 13.9694 11.5323 13.9694 10.7905 13.5243L3.09824 8.90894C2.41574 8.49945 2 7.77405 2 6.99271V6.75" stroke="black" stroke-opacity="0.2" stroke-width="1.5" stroke-linecap="round" stroke-linejoin="round"/>
</svg>
