<svg width="32" height="32" viewBox="0 0 32 32" fill="none" xmlns="http://www.w3.org/2000/svg">
<path d="M13.1875 16C13.1875 15.6893 12.9357 15.4375 12.625 15.4375C12.3144 15.4375 12.0625 15.6893 12.0625 16C12.0625 17.0443 12.4774 18.0458 13.2158 18.7842C13.9542 19.5227 14.9557 19.9375 16 19.9375C17.0443 19.9375 18.0458 19.5227 18.7842 18.7842C19.5226 18.0458 19.9375 17.0443 19.9375 16C19.9375 15.6893 19.6856 15.4375 19.375 15.4375C19.0643 15.4375 18.8125 15.6893 18.8125 16C18.8125 16.7459 18.5162 17.4613 17.9887 17.9887C17.4613 18.5162 16.7459 18.8125 16 18.8125C15.2541 18.8125 14.5387 18.5162 14.0113 17.9887C13.4838 17.4613 13.1875 16.7459 13.1875 16Z" fill="#94A8DE"/>
<path fill-rule="evenodd" clip-rule="evenodd" d="M21.2198 7.03571C20.8367 6.99999 20.3726 6.99999 19.8053 7H12.1947C11.6274 6.99999 11.1633 6.99999 10.7802 7.03571C10.3796 7.07306 10.0272 7.15211 9.68959 7.33279C9.35199 7.51347 9.09075 7.76282 8.83746 8.07541C8.59522 8.37437 8.33776 8.76058 8.0231 9.23258L7.80701 9.5567C7.47338 10.0568 7.24178 10.4039 7.12071 10.8037C6.99965 11.2036 6.9998 11.6209 7.00002 12.222L7.00004 19.9787C7.00002 21.0043 7.00001 21.8311 7.08743 22.4813C7.17819 23.1564 7.37236 23.7248 7.8238 24.1762C8.27523 24.6277 8.84363 24.8218 9.51871 24.9126C10.1689 25 10.9957 25 12.0214 25H19.9786C21.0043 25 21.8311 25 22.4813 24.9126C23.1564 24.8218 23.7248 24.6277 24.1762 24.1762C24.6276 23.7248 24.8218 23.1564 24.9126 22.4813C25 21.8311 25 21.0043 25 19.9787L25 12.222C25.0002 11.6209 25.0003 11.2036 24.8793 10.8037C24.7582 10.4039 24.5266 10.0568 24.193 9.5567L23.9769 9.2326C23.6622 8.76058 23.4048 8.37438 23.1625 8.07541C22.9093 7.76282 22.648 7.51347 22.3104 7.33279C21.9728 7.15211 21.6204 7.07306 21.2198 7.03571ZM8.12503 19.9375V13.75H23.875V19.9375C23.875 21.0141 23.8738 21.7649 23.7976 22.3314C23.7236 22.8817 23.5883 23.1732 23.3807 23.3807C23.1731 23.5883 22.8817 23.7236 22.3314 23.7976C21.7649 23.8738 21.014 23.875 19.9375 23.875H12.0625C10.986 23.875 10.2351 23.8738 9.66862 23.7976C9.11829 23.7236 8.82686 23.5883 8.61929 23.3807C8.41172 23.1732 8.27638 22.8817 8.20239 22.3314C8.12623 21.7649 8.12503 21.0141 8.12503 19.9375ZM8.12503 12.3V12.625H23.875V12.3C23.875 11.5909 23.8694 11.3506 23.8026 11.1297C23.7357 10.9089 23.607 10.7058 23.2137 10.1159L23.0553 9.87837C22.7227 9.37935 22.4938 9.03713 22.2885 8.78365C22.0904 8.53923 21.9394 8.41023 21.7796 8.32468C21.6197 8.23912 21.4286 8.18506 21.1154 8.15585C20.7906 8.12556 20.3789 8.125 19.7792 8.125H12.2208C11.6211 8.125 11.2094 8.12556 10.8846 8.15585C10.5714 8.18506 10.3803 8.23912 10.2204 8.32468C10.0606 8.41023 9.90959 8.53923 9.71154 8.78365C9.50616 9.03713 9.27733 9.37935 8.94466 9.87837L8.78633 10.1159C8.39301 10.7058 8.2643 10.9089 8.19744 11.1297C8.13058 11.3506 8.12503 11.5909 8.12503 12.3Z" fill="#94A8DE"/>
<path fill-rule="evenodd" clip-rule="evenodd" d="M16 1.5C7.99187 1.5 1.5 7.99187 1.5 16C1.5 24.0081 7.99187 30.5 16 30.5C24.0081 30.5 30.5 24.0081 30.5 16C30.5 7.99187 24.0081 1.5 16 1.5ZM2.5 16C2.5 8.54416 8.54416 2.5 16 2.5C23.4558 2.5 29.5 8.54416 29.5 16C29.5 23.4558 23.4558 29.5 16 29.5C8.54416 29.5 2.5 23.4558 2.5 16Z" fill="#94A8DE"/>
</svg>
