<svg width="311" height="28" viewBox="0 0 311 28" fill="none" xmlns="http://www.w3.org/2000/svg">
<path d="M164.9 23.6316C162.319 23.6299 159.845 22.6143 158.02 20.8082C156.196 19.0022 155.171 16.5533 155.171 14C155.171 11.4467 156.196 8.99782 158.02 7.19173C159.845 5.38563 162.319 4.37011 164.9 4.36836H309.513C308.786 3.0474 307.712 1.94462 306.405 1.17595C305.098 0.407272 303.606 0.00107608 302.086 0H14.6337C10.8835 0.00416325 7.28827 1.48104 4.63808 4.10615C1.9879 6.73126 0.499533 10.2898 0.5 14C0.501897 17.7094 1.99103 21.2667 4.64071 23.8913C7.29038 26.5159 10.8842 27.9935 14.6337 28H302.086C303.606 27.9989 305.098 27.5926 306.405 26.824C307.712 26.0553 308.786 24.9526 309.513 23.6316L164.9 23.6316Z" fill="#94A8DE"/>
<path d="M309.705 9.67483H172.212C172.002 9.67433 171.8 9.59126 171.651 9.44386C171.503 9.29646 171.419 9.09676 171.419 8.88856C171.419 8.68036 171.503 8.48066 171.651 8.33326C171.8 8.18587 172.002 8.10279 172.212 8.10229H309.705C309.916 8.10279 310.117 8.18587 310.266 8.33326C310.415 8.48066 310.498 8.68036 310.498 8.88856C310.498 9.09676 310.415 9.29646 310.266 9.44386C310.117 9.59126 309.916 9.67433 309.705 9.67483Z" fill="#94A8DE"/>
<path d="M309.705 14.7864H172.212C172.001 14.7864 171.799 14.7035 171.65 14.5561C171.501 14.4086 171.417 14.2086 171.417 14.0001C171.417 13.7916 171.501 13.5916 171.65 13.4441C171.799 13.2967 172.001 13.2139 172.212 13.2139H309.705C309.916 13.2139 310.118 13.2967 310.267 13.4441C310.416 13.5916 310.5 13.7916 310.5 14.0001C310.5 14.2086 310.416 14.4086 310.267 14.5561C310.118 14.7035 309.916 14.7864 309.705 14.7864Z" fill="#94A8DE"/>
<path d="M309.705 19.8962H172.212C172.002 19.8957 171.8 19.8127 171.651 19.6653C171.503 19.5179 171.419 19.3182 171.419 19.11C171.419 18.9018 171.503 18.7021 171.651 18.5547C171.8 18.4073 172.002 18.3242 172.212 18.3237H309.705C309.916 18.3242 310.117 18.4073 310.266 18.5547C310.415 18.7021 310.498 18.9018 310.498 19.11C310.498 19.3182 310.415 19.5179 310.266 19.6653C310.117 19.8127 309.916 19.8957 309.705 19.8962Z" fill="#94A8DE"/>
</svg>
