<svg width="24" height="25" viewBox="0 0 24 25" fill="none" xmlns="http://www.w3.org/2000/svg">
<path fill-rule="evenodd" clip-rule="evenodd" d="M5 2.5C4.20435 2.5 3.44129 2.81607 2.87868 3.37868C2.31607 3.94129 2 4.70435 2 5.5V19.5C2 20.2957 2.31607 21.0587 2.87868 21.6213C3.44129 22.1839 4.20435 22.5 5 22.5H19C19.7957 22.5 20.5587 22.1839 21.1213 21.6213C21.6839 21.0587 22 20.2957 22 19.5V8.5C22 8.23478 21.8946 7.98043 21.7071 7.79289L16.7071 2.79289C16.5196 2.60536 16.2652 2.5 16 2.5H5ZM5 4.5C4.73478 4.5 4.48043 4.60536 4.29289 4.79289C4.10536 4.98043 4 5.23478 4 5.5V19.5C4 19.7652 4.10536 20.0196 4.29289 20.2071C4.48043 20.3946 4.73478 20.5 5 20.5H6V13.5C6 12.9477 6.44772 12.5 7 12.5H17C17.5523 12.5 18 12.9477 18 13.5V20.5H19C19.2652 20.5 19.5196 20.3946 19.7071 20.2071C19.8946 20.0196 20 19.7652 20 19.5V8.91421L15.5858 4.5H8V7.5H15C15.5523 7.5 16 7.94772 16 8.5C16 9.05228 15.5523 9.5 15 9.5H7C6.44772 9.5 6 9.05228 6 8.5V4.5H5ZM8 14.5V20.5H16V14.5H8Z" fill="#FCFAFA"/>
</svg>
