<svg width="20" height="20" viewBox="0 0 20 20" fill="none" xmlns="http://www.w3.org/2000/svg">
<path d="M16.1439 3.63604L16.4975 3.28249L16.1439 3.63604L16.364 3.85608C16.8015 4.29357 17.0933 4.58687 17.2819 4.83408C17.4617 5.06976 17.5 5.2039 17.5 5.31623C17.5 5.42856 17.4617 5.56271 17.2819 5.79838C17.0932 6.0456 16.8014 6.3389 16.364 6.77639L7.13767 16.0027C6.86927 16.2711 6.79771 16.3368 6.71872 16.3815C6.63973 16.4262 6.5466 16.4538 6.17835 16.5458L2.77448 17.3968C2.68727 17.4186 2.61296 17.4372 2.54738 17.4526C2.56284 17.387 2.58139 17.3127 2.6032 17.2255L3.45416 13.8217C3.54623 13.4534 3.5738 13.3603 3.61852 13.2813C3.66325 13.2023 3.72892 13.1307 3.99732 12.8623L13.2236 3.63604C13.6611 3.19855 13.9544 2.90675 14.2016 2.71813C14.4373 2.53832 14.5714 2.5 14.6838 2.5C14.7961 2.5 14.9302 2.53832 15.1659 2.71813C15.4131 2.90675 15.7064 3.19855 16.1439 3.63604Z" stroke="#1A1A1A"/>
<path d="M16.1439 3.63604L16.4975 3.28249L16.1439 3.63604L16.364 3.85608C16.8015 4.29357 17.0933 4.58687 17.2819 4.83408C17.4617 5.06976 17.5 5.2039 17.5 5.31623C17.5 5.42856 17.4617 5.56271 17.2819 5.79838C17.0932 6.0456 16.8014 6.3389 16.364 6.77639L7.13767 16.0027C6.86927 16.2711 6.79771 16.3368 6.71872 16.3815C6.63973 16.4262 6.5466 16.4538 6.17835 16.5458L2.77448 17.3968C2.68727 17.4186 2.61296 17.4372 2.54738 17.4526C2.56284 17.387 2.58139 17.3127 2.6032 17.2255L3.45416 13.8217C3.54623 13.4534 3.5738 13.3603 3.61852 13.2813C3.66325 13.2023 3.72892 13.1307 3.99732 12.8623L13.2236 3.63604C13.6611 3.19855 13.9544 2.90675 14.2016 2.71813C14.4373 2.53832 14.5714 2.5 14.6838 2.5C14.7961 2.5 14.9302 2.53832 15.1659 2.71813C15.4131 2.90675 15.7064 3.19855 16.1439 3.63604Z" stroke="black" stroke-opacity="0.2"/>
<path d="M16.1439 3.63604L16.4975 3.28249L16.1439 3.63604L16.364 3.85608C16.8015 4.29357 17.0933 4.58687 17.2819 4.83408C17.4617 5.06976 17.5 5.2039 17.5 5.31623C17.5 5.42856 17.4617 5.56271 17.2819 5.79838C17.0932 6.0456 16.8014 6.3389 16.364 6.77639L7.13767 16.0027C6.86927 16.2711 6.79771 16.3368 6.71872 16.3815C6.63973 16.4262 6.5466 16.4538 6.17835 16.5458L2.77448 17.3968C2.68727 17.4186 2.61296 17.4372 2.54738 17.4526C2.56284 17.387 2.58139 17.3127 2.6032 17.2255L3.45416 13.8217C3.54623 13.4534 3.5738 13.3603 3.61852 13.2813C3.66325 13.2023 3.72892 13.1307 3.99732 12.8623L13.2236 3.63604C13.6611 3.19855 13.9544 2.90675 14.2016 2.71813C14.4373 2.53832 14.5714 2.5 14.6838 2.5C14.7961 2.5 14.9302 2.53832 15.1659 2.71813C15.4131 2.90675 15.7064 3.19855 16.1439 3.63604Z" stroke="black" stroke-opacity="0.2"/>
<path d="M16.1439 3.63604L16.4975 3.28249L16.1439 3.63604L16.364 3.85608C16.8015 4.29357 17.0933 4.58687 17.2819 4.83408C17.4617 5.06976 17.5 5.2039 17.5 5.31623C17.5 5.42856 17.4617 5.56271 17.2819 5.79838C17.0932 6.0456 16.8014 6.3389 16.364 6.77639L7.13767 16.0027C6.86927 16.2711 6.79771 16.3368 6.71872 16.3815C6.63973 16.4262 6.5466 16.4538 6.17835 16.5458L2.77448 17.3968C2.68727 17.4186 2.61296 17.4372 2.54738 17.4526C2.56284 17.387 2.58139 17.3127 2.6032 17.2255L3.45416 13.8217C3.54623 13.4534 3.5738 13.3603 3.61852 13.2813C3.66325 13.2023 3.72892 13.1307 3.99732 12.8623L13.2236 3.63604C13.6611 3.19855 13.9544 2.90675 14.2016 2.71813C14.4373 2.53832 14.5714 2.5 14.6838 2.5C14.7961 2.5 14.9302 2.53832 15.1659 2.71813C15.4131 2.90675 15.7064 3.19855 16.1439 3.63604Z" stroke="black" stroke-opacity="0.2"/>
<path d="M16.1439 3.63604L16.4975 3.28249L16.1439 3.63604L16.364 3.85608C16.8015 4.29357 17.0933 4.58687 17.2819 4.83408C17.4617 5.06976 17.5 5.2039 17.5 5.31623C17.5 5.42856 17.4617 5.56271 17.2819 5.79838C17.0932 6.0456 16.8014 6.3389 16.364 6.77639L7.13767 16.0027C6.86927 16.2711 6.79771 16.3368 6.71872 16.3815C6.63973 16.4262 6.5466 16.4538 6.17835 16.5458L2.77448 17.3968C2.68727 17.4186 2.61296 17.4372 2.54738 17.4526C2.56284 17.387 2.58139 17.3127 2.6032 17.2255L3.45416 13.8217C3.54623 13.4534 3.5738 13.3603 3.61852 13.2813C3.66325 13.2023 3.72892 13.1307 3.99732 12.8623L13.2236 3.63604C13.6611 3.19855 13.9544 2.90675 14.2016 2.71813C14.4373 2.53832 14.5714 2.5 14.6838 2.5C14.7961 2.5 14.9302 2.53832 15.1659 2.71813C15.4131 2.90675 15.7064 3.19855 16.1439 3.63604Z" stroke="black" stroke-opacity="0.2"/>
<path d="M16.1439 3.63604L16.4975 3.28249L16.1439 3.63604L16.364 3.85608C16.8015 4.29357 17.0933 4.58687 17.2819 4.83408C17.4617 5.06976 17.5 5.2039 17.5 5.31623C17.5 5.42856 17.4617 5.56271 17.2819 5.79838C17.0932 6.0456 16.8014 6.3389 16.364 6.77639L7.13767 16.0027C6.86927 16.2711 6.79771 16.3368 6.71872 16.3815C6.63973 16.4262 6.5466 16.4538 6.17835 16.5458L2.77448 17.3968C2.68727 17.4186 2.61296 17.4372 2.54738 17.4526C2.56284 17.387 2.58139 17.3127 2.6032 17.2255L3.45416 13.8217C3.54623 13.4534 3.5738 13.3603 3.61852 13.2813C3.66325 13.2023 3.72892 13.1307 3.99732 12.8623L13.2236 3.63604C13.6611 3.19855 13.9544 2.90675 14.2016 2.71813C14.4373 2.53832 14.5714 2.5 14.6838 2.5C14.7961 2.5 14.9302 2.53832 15.1659 2.71813C15.4131 2.90675 15.7064 3.19855 16.1439 3.63604Z" stroke="black" stroke-opacity="0.2"/>
<path d="M16.1439 3.63604L16.4975 3.28249L16.1439 3.63604L16.364 3.85608C16.8015 4.29357 17.0933 4.58687 17.2819 4.83408C17.4617 5.06976 17.5 5.2039 17.5 5.31623C17.5 5.42856 17.4617 5.56271 17.2819 5.79838C17.0932 6.0456 16.8014 6.3389 16.364 6.77639L7.13767 16.0027C6.86927 16.2711 6.79771 16.3368 6.71872 16.3815C6.63973 16.4262 6.5466 16.4538 6.17835 16.5458L2.77448 17.3968C2.68727 17.4186 2.61296 17.4372 2.54738 17.4526C2.56284 17.387 2.58139 17.3127 2.6032 17.2255L3.45416 13.8217C3.54623 13.4534 3.5738 13.3603 3.61852 13.2813C3.66325 13.2023 3.72892 13.1307 3.99732 12.8623L13.2236 3.63604C13.6611 3.19855 13.9544 2.90675 14.2016 2.71813C14.4373 2.53832 14.5714 2.5 14.6838 2.5C14.7961 2.5 14.9302 2.53832 15.1659 2.71813C15.4131 2.90675 15.7064 3.19855 16.1439 3.63604Z" stroke="black" stroke-opacity="0.2"/>
<path d="M16.1439 3.63604L16.4975 3.28249L16.1439 3.63604L16.364 3.85608C16.8015 4.29357 17.0933 4.58687 17.2819 4.83408C17.4617 5.06976 17.5 5.2039 17.5 5.31623C17.5 5.42856 17.4617 5.56271 17.2819 5.79838C17.0932 6.0456 16.8014 6.3389 16.364 6.77639L7.13767 16.0027C6.86927 16.2711 6.79771 16.3368 6.71872 16.3815C6.63973 16.4262 6.5466 16.4538 6.17835 16.5458L2.77448 17.3968C2.68727 17.4186 2.61296 17.4372 2.54738 17.4526C2.56284 17.387 2.58139 17.3127 2.6032 17.2255L3.45416 13.8217C3.54623 13.4534 3.5738 13.3603 3.61852 13.2813C3.66325 13.2023 3.72892 13.1307 3.99732 12.8623L13.2236 3.63604C13.6611 3.19855 13.9544 2.90675 14.2016 2.71813C14.4373 2.53832 14.5714 2.5 14.6838 2.5C14.7961 2.5 14.9302 2.53832 15.1659 2.71813C15.4131 2.90675 15.7064 3.19855 16.1439 3.63604Z" stroke="black" stroke-opacity="0.2"/>
<path d="M16.1439 3.63604L16.4975 3.28249L16.1439 3.63604L16.364 3.85608C16.8015 4.29357 17.0933 4.58687 17.2819 4.83408C17.4617 5.06976 17.5 5.2039 17.5 5.31623C17.5 5.42856 17.4617 5.56271 17.2819 5.79838C17.0932 6.0456 16.8014 6.3389 16.364 6.77639L7.13767 16.0027C6.86927 16.2711 6.79771 16.3368 6.71872 16.3815C6.63973 16.4262 6.5466 16.4538 6.17835 16.5458L2.77448 17.3968C2.68727 17.4186 2.61296 17.4372 2.54738 17.4526C2.56284 17.387 2.58139 17.3127 2.6032 17.2255L3.45416 13.8217C3.54623 13.4534 3.5738 13.3603 3.61852 13.2813C3.66325 13.2023 3.72892 13.1307 3.99732 12.8623L13.2236 3.63604C13.6611 3.19855 13.9544 2.90675 14.2016 2.71813C14.4373 2.53832 14.5714 2.5 14.6838 2.5C14.7961 2.5 14.9302 2.53832 15.1659 2.71813C15.4131 2.90675 15.7064 3.19855 16.1439 3.63604Z" stroke="black" stroke-opacity="0.2"/>
<path d="M16.1439 3.63604L16.4975 3.28249L16.1439 3.63604L16.364 3.85608C16.8015 4.29357 17.0933 4.58687 17.2819 4.83408C17.4617 5.06976 17.5 5.2039 17.5 5.31623C17.5 5.42856 17.4617 5.56271 17.2819 5.79838C17.0932 6.0456 16.8014 6.3389 16.364 6.77639L7.13767 16.0027C6.86927 16.2711 6.79771 16.3368 6.71872 16.3815C6.63973 16.4262 6.5466 16.4538 6.17835 16.5458L2.77448 17.3968C2.68727 17.4186 2.61296 17.4372 2.54738 17.4526C2.56284 17.387 2.58139 17.3127 2.6032 17.2255L3.45416 13.8217C3.54623 13.4534 3.5738 13.3603 3.61852 13.2813C3.66325 13.2023 3.72892 13.1307 3.99732 12.8623L13.2236 3.63604C13.6611 3.19855 13.9544 2.90675 14.2016 2.71813C14.4373 2.53832 14.5714 2.5 14.6838 2.5C14.7961 2.5 14.9302 2.53832 15.1659 2.71813C15.4131 2.90675 15.7064 3.19855 16.1439 3.63604Z" stroke="black" stroke-opacity="0.2"/>
<path d="M16.1439 3.63604L16.4975 3.28249L16.1439 3.63604L16.364 3.85608C16.8015 4.29357 17.0933 4.58687 17.2819 4.83408C17.4617 5.06976 17.5 5.2039 17.5 5.31623C17.5 5.42856 17.4617 5.56271 17.2819 5.79838C17.0932 6.0456 16.8014 6.3389 16.364 6.77639L7.13767 16.0027C6.86927 16.2711 6.79771 16.3368 6.71872 16.3815C6.63973 16.4262 6.5466 16.4538 6.17835 16.5458L2.77448 17.3968C2.68727 17.4186 2.61296 17.4372 2.54738 17.4526C2.56284 17.387 2.58139 17.3127 2.6032 17.2255L3.45416 13.8217C3.54623 13.4534 3.5738 13.3603 3.61852 13.2813C3.66325 13.2023 3.72892 13.1307 3.99732 12.8623L13.2236 3.63604C13.6611 3.19855 13.9544 2.90675 14.2016 2.71813C14.4373 2.53832 14.5714 2.5 14.6838 2.5C14.7961 2.5 14.9302 2.53832 15.1659 2.71813C15.4131 2.90675 15.7064 3.19855 16.1439 3.63604Z" stroke="black" stroke-opacity="0.2"/>
<path d="M16.1439 3.63604L16.4975 3.28249L16.1439 3.63604L16.364 3.85608C16.8015 4.29357 17.0933 4.58687 17.2819 4.83408C17.4617 5.06976 17.5 5.2039 17.5 5.31623C17.5 5.42856 17.4617 5.56271 17.2819 5.79838C17.0932 6.0456 16.8014 6.3389 16.364 6.77639L7.13767 16.0027C6.86927 16.2711 6.79771 16.3368 6.71872 16.3815C6.63973 16.4262 6.5466 16.4538 6.17835 16.5458L2.77448 17.3968C2.68727 17.4186 2.61296 17.4372 2.54738 17.4526C2.56284 17.387 2.58139 17.3127 2.6032 17.2255L3.45416 13.8217C3.54623 13.4534 3.5738 13.3603 3.61852 13.2813C3.66325 13.2023 3.72892 13.1307 3.99732 12.8623L13.2236 3.63604C13.6611 3.19855 13.9544 2.90675 14.2016 2.71813C14.4373 2.53832 14.5714 2.5 14.6838 2.5C14.7961 2.5 14.9302 2.53832 15.1659 2.71813C15.4131 2.90675 15.7064 3.19855 16.1439 3.63604Z" stroke="black" stroke-opacity="0.2"/>
<path d="M16.1439 3.63604L16.4975 3.28249L16.1439 3.63604L16.364 3.85608C16.8015 4.29357 17.0933 4.58687 17.2819 4.83408C17.4617 5.06976 17.5 5.2039 17.5 5.31623C17.5 5.42856 17.4617 5.56271 17.2819 5.79838C17.0932 6.0456 16.8014 6.3389 16.364 6.77639L7.13767 16.0027C6.86927 16.2711 6.79771 16.3368 6.71872 16.3815C6.63973 16.4262 6.5466 16.4538 6.17835 16.5458L2.77448 17.3968C2.68727 17.4186 2.61296 17.4372 2.54738 17.4526C2.56284 17.387 2.58139 17.3127 2.6032 17.2255L3.45416 13.8217C3.54623 13.4534 3.5738 13.3603 3.61852 13.2813C3.66325 13.2023 3.72892 13.1307 3.99732 12.8623L13.2236 3.63604C13.6611 3.19855 13.9544 2.90675 14.2016 2.71813C14.4373 2.53832 14.5714 2.5 14.6838 2.5C14.7961 2.5 14.9302 2.53832 15.1659 2.71813C15.4131 2.90675 15.7064 3.19855 16.1439 3.63604Z" stroke="black" stroke-opacity="0.2"/>
<path d="M16.1439 3.63604L16.4975 3.28249L16.1439 3.63604L16.364 3.85608C16.8015 4.29357 17.0933 4.58687 17.2819 4.83408C17.4617 5.06976 17.5 5.2039 17.5 5.31623C17.5 5.42856 17.4617 5.56271 17.2819 5.79838C17.0932 6.0456 16.8014 6.3389 16.364 6.77639L7.13767 16.0027C6.86927 16.2711 6.79771 16.3368 6.71872 16.3815C6.63973 16.4262 6.5466 16.4538 6.17835 16.5458L2.77448 17.3968C2.68727 17.4186 2.61296 17.4372 2.54738 17.4526C2.56284 17.387 2.58139 17.3127 2.6032 17.2255L3.45416 13.8217C3.54623 13.4534 3.5738 13.3603 3.61852 13.2813C3.66325 13.2023 3.72892 13.1307 3.99732 12.8623L13.2236 3.63604C13.6611 3.19855 13.9544 2.90675 14.2016 2.71813C14.4373 2.53832 14.5714 2.5 14.6838 2.5C14.7961 2.5 14.9302 2.53832 15.1659 2.71813C15.4131 2.90675 15.7064 3.19855 16.1439 3.63604Z" stroke="black" stroke-opacity="0.2"/>
</svg>
