<svg width="22" height="20" viewBox="0 0 22 20" fill="none" xmlns="http://www.w3.org/2000/svg">
<path d="M11 3C7.10814 3 4.2011 5.4404 2.47273 7.43934C1.17576 8.93936 1.17576 11.0606 2.47273 12.5607C4.2011 14.5596 7.10813 17 11 17C14.8919 17 17.7989 14.5596 19.5273 12.5607C20.8242 11.0606 20.8242 8.93936 19.5273 7.43934C17.7989 5.4404 14.8919 3 11 3Z" stroke="#94A8DE" stroke-width="1.5" stroke-linecap="round" stroke-linejoin="round"/>
<path d="M11 13C12.7161 13 14.1074 11.6569 14.1074 10C14.1074 8.34315 12.7161 7 11 7C9.28384 7 7.89263 8.34315 7.89263 10C7.89263 11.6569 9.28384 13 11 13Z" stroke="#94A8DE" stroke-width="1.5" stroke-linecap="round" stroke-linejoin="round"/>
</svg>
