<svg width="17" height="16" viewBox="0 0 17 16" fill="none" xmlns="http://www.w3.org/2000/svg">
<path d="M11.6869 2.64645C11.4916 2.45118 11.1751 2.45118 10.9798 2.64645L7.79781 5.82843C7.60255 6.02369 7.60255 6.34027 7.79781 6.53553C7.99308 6.7308 8.30966 6.7308 8.50492 6.53553L10.8333 4.20711V13H11.8333V4.20711L14.1618 6.53553C14.357 6.7308 14.6736 6.7308 14.8689 6.53553C15.0641 6.34027 15.0641 6.02369 14.8689 5.82843L11.6869 2.64645Z" fill="#61677A"/>
<path d="M5.6869 13.3536L8.86888 10.1716C9.06414 9.97631 9.06414 9.65973 8.86888 9.46447C8.67362 9.2692 8.35704 9.2692 8.16177 9.46447L5.83335 11.7929L5.83335 3L4.83335 3L4.83335 11.7929L2.50492 9.46447C2.30966 9.2692 1.99308 9.2692 1.79781 9.46447C1.60255 9.65973 1.60255 9.97631 1.79781 10.1716L4.97979 13.3536C5.17506 13.5488 5.49164 13.5488 5.6869 13.3536Z" fill="#61677A"/>
</svg>
