<svg width="17" height="16" viewBox="0 0 17 16" fill="none" xmlns="http://www.w3.org/2000/svg">
<path d="M12.0202 2.64645C11.8249 2.45118 11.5083 2.45118 11.313 2.64645L8.13107 5.82843C7.9358 6.02369 7.9358 6.34027 8.13107 6.53553C8.32633 6.7308 8.64291 6.7308 8.83817 6.53553L11.1666 4.20711V13H12.1666V4.20711L14.495 6.53553C14.6903 6.7308 15.0069 6.7308 15.2021 6.53553C15.3974 6.34027 15.3974 6.02369 15.2021 5.82843L12.0202 2.64645Z" fill="#61677A"/>
<path d="M6.02015 13.3536L9.20213 10.1716C9.3974 9.97631 9.3974 9.65973 9.20213 9.46447C9.00687 9.2692 8.69029 9.2692 8.49503 9.46447L6.1666 11.7929L6.1666 3L5.1666 3L5.1666 11.7929L2.83817 9.46447C2.64291 9.2692 2.32633 9.2692 2.13107 9.46447C1.9358 9.65973 1.9358 9.97631 2.13107 10.1716L5.31305 13.3536C5.50831 13.5488 5.82489 13.5488 6.02015 13.3536Z" fill="#61677A"/>
</svg>
