<svg width="16" height="16" viewBox="0 0 16 16" fill="none" xmlns="http://www.w3.org/2000/svg">
<path d="M11.3535 2.64645C11.1583 2.45118 10.8417 2.45118 10.6464 2.64645L7.46444 5.82843C7.26918 6.02369 7.26918 6.34027 7.46444 6.53553C7.6597 6.7308 7.97628 6.7308 8.17155 6.53553L10.5 4.20711V13H11.5V4.20711L13.8284 6.53553C14.0237 6.7308 14.3402 6.7308 14.5355 6.53553C14.7308 6.34027 14.7308 6.02369 14.5355 5.82843L11.3535 2.64645Z" fill="#61677A"/>
<path d="M5.35353 13.3536L8.53551 10.1716C8.73077 9.97631 8.73077 9.65973 8.53551 9.46447C8.34025 9.2692 8.02366 9.2692 7.8284 9.46447L5.49997 11.7929L5.49997 3L4.49997 3L4.49997 11.7929L2.17155 9.46447C1.97628 9.2692 1.6597 9.2692 1.46444 9.46447C1.26918 9.65973 1.26918 9.97631 1.46444 10.1716L4.64642 13.3536C4.84168 13.5488 5.15826 13.5488 5.35353 13.3536Z" fill="#61677A"/>
</svg>
