<svg width="16" height="16" viewBox="0 0 16 16" fill="none" xmlns="http://www.w3.org/2000/svg">
<path d="M11.3537 2.64645C11.1584 2.45118 10.8418 2.45118 10.6465 2.64645L7.46456 5.82843C7.2693 6.02369 7.2693 6.34027 7.46456 6.53553C7.65982 6.7308 7.97641 6.7308 8.17167 6.53553L10.5001 4.20711V13H11.5001V4.20711L13.8285 6.53553C14.0238 6.7308 14.3404 6.7308 14.5356 6.53553C14.7309 6.34027 14.7309 6.02369 14.5356 5.82843L11.3537 2.64645Z" fill="#61677A"/>
<path d="M5.35365 13.3536L8.53563 10.1716C8.73089 9.97631 8.73089 9.65973 8.53563 9.46447C8.34037 9.2692 8.02379 9.2692 7.82852 9.46447L5.5001 11.7929L5.5001 3L4.5001 3L4.5001 11.7929L2.17167 9.46447C1.97641 9.2692 1.65982 9.2692 1.46456 9.46447C1.2693 9.65973 1.2693 9.97631 1.46456 10.1716L4.64654 13.3536C4.8418 13.5488 5.15839 13.5488 5.35365 13.3536Z" fill="#61677A"/>
</svg>
