<svg width="16" height="16" viewBox="0 0 16 16" fill="none" xmlns="http://www.w3.org/2000/svg">
<path d="M2.66675 7.99984C2.66675 7.26346 3.2637 6.6665 4.00008 6.6665C4.73646 6.6665 5.33341 7.26346 5.33341 7.99984C5.33341 8.73622 4.73646 9.33317 4.00008 9.33317C3.2637 9.33317 2.66675 8.73622 2.66675 7.99984Z" fill="#61677A"/>
<path d="M6.66675 7.99984C6.66675 7.26346 7.2637 6.6665 8.00008 6.6665C8.73646 6.6665 9.33341 7.26346 9.33341 7.99984C9.33341 8.73622 8.73646 9.33317 8.00008 9.33317C7.2637 9.33317 6.66675 8.73622 6.66675 7.99984Z" fill="#61677A"/>
<path d="M12.0001 6.6665C11.2637 6.6665 10.6667 7.26346 10.6667 7.99984C10.6667 8.73622 11.2637 9.33317 12.0001 9.33317C12.7365 9.33317 13.3334 8.73622 13.3334 7.99984C13.3334 7.26346 12.7365 6.6665 12.0001 6.6665Z" fill="#61677A"/>
</svg>
