<svg width="16" height="16" viewBox="0 0 16 16" fill="none" xmlns="http://www.w3.org/2000/svg">
<path d="M2.66675 8C2.66675 7.26362 3.2637 6.66666 4.00008 6.66666C4.73646 6.66666 5.33341 7.26362 5.33341 8C5.33341 8.73638 4.73646 9.33333 4.00008 9.33333C3.2637 9.33333 2.66675 8.73638 2.66675 8Z" fill="#61677A"/>
<path d="M6.66675 8C6.66675 7.26362 7.2637 6.66666 8.00008 6.66666C8.73646 6.66666 9.33341 7.26362 9.33341 8C9.33341 8.73638 8.73646 9.33333 8.00008 9.33333C7.2637 9.33333 6.66675 8.73638 6.66675 8Z" fill="#61677A"/>
<path d="M12.0001 6.66666C11.2637 6.66666 10.6667 7.26362 10.6667 8C10.6667 8.73638 11.2637 9.33333 12.0001 9.33333C12.7365 9.33333 13.3334 8.73638 13.3334 8C13.3334 7.26362 12.7365 6.66666 12.0001 6.66666Z" fill="#61677A"/>
</svg>
