<svg width="16" height="16" viewBox="0 0 16 16" fill="none" xmlns="http://www.w3.org/2000/svg">
<path d="M2.66675 8.00001C2.66675 7.26363 3.2637 6.66667 4.00008 6.66667C4.73646 6.66667 5.33341 7.26363 5.33341 8.00001C5.33341 8.73638 4.73646 9.33334 4.00008 9.33334C3.2637 9.33334 2.66675 8.73638 2.66675 8.00001Z" fill="#61677A"/>
<path d="M6.66675 8.00001C6.66675 7.26363 7.2637 6.66667 8.00008 6.66667C8.73646 6.66667 9.33341 7.26363 9.33341 8.00001C9.33341 8.73638 8.73646 9.33334 8.00008 9.33334C7.2637 9.33334 6.66675 8.73638 6.66675 8.00001Z" fill="#61677A"/>
<path d="M12.0001 6.66667C11.2637 6.66667 10.6667 7.26363 10.6667 8.00001C10.6667 8.73638 11.2637 9.33334 12.0001 9.33334C12.7365 9.33334 13.3334 8.73638 13.3334 8.00001C13.3334 7.26363 12.7365 6.66667 12.0001 6.66667Z" fill="#61677A"/>
</svg>
