<svg width="32" height="32" viewBox="0 0 32 32" fill="none" xmlns="http://www.w3.org/2000/svg">
<path d="M12.5682 6.63262C14.7139 6.0491 16.9974 6.19097 19.0509 7.03535C21.1043 7.87973 22.808 9.37746 23.8875 11.2872C24.0622 11.5961 24.4591 11.7077 24.7741 11.5365C25.0891 11.3653 25.203 10.976 25.0283 10.6671C23.8068 8.50608 21.8789 6.81128 19.5553 5.85579C17.2317 4.9003 14.6477 4.73977 12.2197 5.40007C9.79167 6.06036 7.66107 7.50303 6.17119 9.4956C4.6813 11.4882 3.9189 13.9146 4.00684 16.3839C4.09477 18.8532 5.02792 21.2216 6.65592 23.1074C8.28392 24.9932 10.512 26.2866 12.981 26.7792C15.4501 27.2718 18.0163 26.9349 20.2663 25.8228C22.5163 24.7106 24.319 22.8881 25.3838 20.6488C25.536 20.3287 25.3948 19.9482 25.0684 19.7989C24.7419 19.6496 24.3539 19.7881 24.2017 20.1082C23.2606 22.0872 21.6676 23.6978 19.6792 24.6806C17.6909 25.6634 15.423 25.9611 13.2411 25.5258C11.0591 25.0904 9.09014 23.9474 7.65144 22.2809C6.21274 20.6144 5.3881 18.5214 5.31039 16.3393C5.23268 14.1571 5.90643 12.0128 7.22307 10.2519C8.53972 8.49105 10.4226 7.21614 12.5682 6.63262Z" fill="#201658"/>
<path d="M27.7391 16.4431C28.087 16.2462 28.087 15.7538 27.7391 15.5569L24.087 13.4892C23.7391 13.2923 23.3043 13.5384 23.3043 13.9323V14.9767C23.3043 15.2593 23.0708 15.4884 22.7826 15.4884H11.0435C10.7553 15.4884 10.5217 15.7174 10.5217 16C10.5217 16.2826 10.7553 16.5116 11.0435 16.5116H22.7826C23.0708 16.5116 23.3043 16.7407 23.3043 17.0232V18.0677C23.3043 18.4616 23.7391 18.7077 24.087 18.5108L27.7391 16.4431Z" fill="#201658"/>
</svg>
