<svg width="32" height="32" viewBox="0 0 32 32" fill="none" xmlns="http://www.w3.org/2000/svg">
<path d="M24.1818 16H25M16 7.81818V7M16 25V24.1818M22.5455 22.5455L21.7273 21.7273M22.5455 9.45455L21.7273 10.2727M9.45455 22.5455L10.2727 21.7273M9.45455 9.45455L10.2727 10.2727M7 16H7.81818M30 16C30 23.732 23.732 30 16 30C8.26801 30 2 23.732 2 16C2 8.26801 8.26801 2 16 2C23.732 2 30 8.26801 30 16ZM16 20.9091C18.7112 20.9091 20.9091 18.7112 20.9091 16C20.9091 13.2888 18.7112 11.0909 16 11.0909C13.2888 11.0909 11.0909 13.2888 11.0909 16C11.0909 18.7112 13.2888 20.9091 16 20.9091Z" stroke="#94A8DE" stroke-linecap="round" stroke-linejoin="round"/>
</svg>
