<svg width="32" height="32" viewBox="0 0 32 32" fill="none" xmlns="http://www.w3.org/2000/svg">
<path d="M9.38235 4.55263H6.44118C5.66113 4.55263 4.91303 4.87425 4.36145 5.44673C3.80987 6.01921 3.5 6.79565 3.5 7.60526V25.9211C3.5 26.7307 3.80987 27.5071 4.36145 28.0796C4.91303 28.6521 5.66113 28.9737 6.44118 28.9737H14.8191M9.38235 4.55263C9.38235 6.23855 10.6992 7.60526 12.3235 7.60526H15.2647C16.8891 7.60526 18.2059 6.23855 18.2059 4.55263M9.38235 4.55263C9.38235 2.86671 10.6992 1.5 12.3235 1.5H15.2647C16.8891 1.5 18.2059 2.86671 18.2059 4.55263M24.0882 15.2368V7.60526C24.0882 6.79565 23.7784 6.01921 23.2268 5.44673C22.6752 4.87425 21.9271 4.55263 21.1471 4.55263H18.2059M9.38235 13.7105H15.2647M9.38235 19.8158H13.7941M24.8235 26.6842L28.5 30.5M25.5588 23.6316C25.5588 25.739 23.9128 27.4474 21.8824 27.4474C19.8519 27.4474 18.2059 25.739 18.2059 23.6316C18.2059 21.5242 19.8519 19.8158 21.8824 19.8158C23.9128 19.8158 25.5588 21.5242 25.5588 23.6316Z" stroke="#201658" stroke-linecap="round" stroke-linejoin="round"/>
</svg>
