<svg width="32" height="32" viewBox="0 0 32 32" fill="none" xmlns="http://www.w3.org/2000/svg">
<path fill-rule="evenodd" clip-rule="evenodd" d="M5.87702 2.00013L5.76862 2.00007C5.27658 1.9996 4.85242 1.99919 4.47667 2.08941C3.29536 2.373 2.373 3.29536 2.08941 4.47667C1.99919 4.85242 1.9996 5.27658 2.00007 5.76862L2.00013 5.87702V11.0462L2.00007 11.1546C1.9996 11.6467 1.99919 12.0708 2.08941 12.4466C2.373 13.6279 3.29536 14.5502 4.47667 14.8338C4.85242 14.924 5.27658 14.9236 5.76862 14.9232L5.87702 14.9231H11.0462L11.1546 14.9232C11.6467 14.9236 12.0708 14.924 12.4466 14.8338C13.6279 14.5502 14.5502 13.6279 14.8338 12.4466C14.924 12.0708 14.9236 11.6467 14.9232 11.1546L14.9231 11.0462V5.87702L14.9232 5.76862C14.9236 5.27658 14.924 4.85242 14.8338 4.47667C14.5502 3.29536 13.6279 2.373 12.4466 2.08941C12.0708 1.99919 11.6467 1.9996 11.1546 2.00007L11.0462 2.00013H5.87702ZM4.97948 4.18373C5.07218 4.16145 5.21412 4.15396 5.87702 4.15396H11.0462C11.7091 4.15396 11.8511 4.16145 11.9438 4.18373C12.3375 4.27826 12.645 4.58569 12.7395 4.97948C12.7618 5.07218 12.7693 5.21412 12.7693 5.87702V11.0462C12.7693 11.7091 12.7618 11.8511 12.7395 11.9438C12.645 12.3375 12.3375 12.645 11.9438 12.7395C11.8511 12.7618 11.7091 12.7693 11.0462 12.7693H5.87702C5.21412 12.7693 5.07218 12.7618 4.97948 12.7395C4.58569 12.645 4.27826 12.3375 4.18373 11.9438C4.16145 11.8511 4.15396 11.7091 4.15396 11.0462V5.87702C4.15396 5.21412 4.16145 5.07218 4.18373 4.97948C4.27826 4.58569 4.58569 4.27826 4.97948 4.18373ZM20.9538 2.00013L20.8454 2.00007C20.3534 1.9996 19.9292 1.99919 19.5535 2.08941C18.3722 2.373 17.4498 3.29536 17.1662 4.47667C17.076 4.85242 17.0764 5.27658 17.0769 5.76862L17.0769 5.87702V11.0462L17.0769 11.1546C17.0764 11.6467 17.076 12.0708 17.1662 12.4466C17.4498 13.6279 18.3722 14.5502 19.5535 14.8338C19.9292 14.924 20.3534 14.9236 20.8454 14.9232L20.9538 14.9231H26.123L26.2313 14.9232C26.7235 14.9236 27.1476 14.924 27.5234 14.8338C28.7046 14.5502 29.6271 13.6279 29.9107 12.4466C30.0008 12.0708 30.0005 11.6467 29.9999 11.1546V11.0462V5.87702V5.76862C30.0005 5.27658 30.0008 4.85242 29.9107 4.47667C29.6271 3.29536 28.7046 2.373 27.5234 2.08941C27.1476 1.99919 26.7235 1.9996 26.2313 2.00007L26.123 2.00013H20.9538ZM20.0563 4.18373C20.149 4.16145 20.2909 4.15396 20.9538 4.15396H26.123C26.786 4.15396 26.9279 4.16145 27.0205 4.18373C27.4142 4.27826 27.7218 4.58569 27.8163 4.97948C27.8385 5.07218 27.8461 5.21412 27.8461 5.87702V11.0462C27.8461 11.7091 27.8385 11.8511 27.8163 11.9438C27.7218 12.3375 27.4142 12.645 27.0205 12.7395C26.9279 12.7618 26.786 12.7693 26.123 12.7693H20.9538C20.2909 12.7693 20.149 12.7618 20.0563 12.7395C19.6625 12.645 19.3551 12.3375 19.2605 11.9438C19.2383 11.8511 19.2308 11.7091 19.2308 11.0462V5.87702C19.2308 5.21412 19.2383 5.07218 19.2605 4.97948C19.3551 4.58569 19.6625 4.27826 20.0563 4.18373ZM5.76862 17.0769L5.87702 17.0769H11.0462L11.1546 17.0769C11.6467 17.0764 12.0708 17.076 12.4466 17.1662C13.6279 17.4498 14.5502 18.3722 14.8338 19.5535C14.924 19.9292 14.9236 20.3534 14.9232 20.8454L14.9231 20.9538V26.123L14.9232 26.2313C14.9236 26.7235 14.924 27.1476 14.8338 27.5234C14.5502 28.7046 13.6279 29.6271 12.4466 29.9107C12.0708 30.0008 11.6467 30.0005 11.1546 29.9999H11.0462H5.87702H5.76862C5.27658 30.0005 4.85242 30.0008 4.47667 29.9107C3.29536 29.6271 2.373 28.7046 2.08941 27.5234C1.99919 27.1476 1.9996 26.7235 2.00007 26.2313L2.00013 26.123V20.9538L2.00007 20.8454C1.9996 20.3534 1.99919 19.9292 2.08941 19.5535C2.373 18.3722 3.29536 17.4498 4.47667 17.1662C4.85242 17.076 5.27658 17.0764 5.76862 17.0769ZM5.87702 19.2308C5.21412 19.2308 5.07218 19.2383 4.97948 19.2605C4.58569 19.3551 4.27826 19.6625 4.18373 20.0563C4.16145 20.149 4.15396 20.2909 4.15396 20.9538V26.123C4.15396 26.786 4.16145 26.9279 4.18373 27.0205C4.27826 27.4142 4.58569 27.7218 4.97948 27.8163C5.07218 27.8385 5.21412 27.8461 5.87702 27.8461H11.0462C11.7091 27.8461 11.8511 27.8385 11.9438 27.8163C12.3375 27.7218 12.645 27.4142 12.7395 27.0205C12.7618 26.9279 12.7693 26.786 12.7693 26.123V20.9538C12.7693 20.2909 12.7618 20.149 12.7395 20.0563C12.645 19.6625 12.3375 19.3551 11.9438 19.2605C11.8511 19.2383 11.7091 19.2308 11.0462 19.2308H5.87702ZM20.9538 17.0769L20.8454 17.0769C20.3534 17.0764 19.9292 17.076 19.5535 17.1662C18.3722 17.4498 17.4498 18.3722 17.1662 19.5535C17.076 19.9292 17.0764 20.3534 17.0769 20.8454L17.0769 20.9538V26.123L17.0769 26.2313C17.0764 26.7235 17.076 27.1476 17.1662 27.5234C17.4498 28.7046 18.3722 29.6271 19.5535 29.9107C19.9292 30.0008 20.3534 30.0005 20.8454 29.9999H20.9538H26.123H26.2313C26.7235 30.0005 27.1476 30.0008 27.5234 29.9107C28.7046 29.6271 29.6271 28.7046 29.9107 27.5234C30.0008 27.1476 30.0005 26.7235 29.9999 26.2313V26.123V20.9538V20.8454C30.0005 20.3534 30.0008 19.9292 29.9107 19.5535C29.6271 18.3722 28.7046 17.4498 27.5234 17.1662C27.1476 17.076 26.7235 17.0764 26.2313 17.0769L26.123 17.0769H20.9538ZM20.0563 19.2605C20.149 19.2383 20.2909 19.2308 20.9538 19.2308H26.123C26.786 19.2308 26.9279 19.2383 27.0205 19.2605C27.4142 19.3551 27.7218 19.6625 27.8163 20.0563C27.8385 20.149 27.8461 20.2909 27.8461 20.9538V26.123C27.8461 26.786 27.8385 26.9279 27.8163 27.0205C27.7218 27.4142 27.4142 27.7218 27.0205 27.8163C26.9279 27.8385 26.786 27.8461 26.123 27.8461H20.9538C20.2909 27.8461 20.149 27.8385 20.0563 27.8163C19.6625 27.7218 19.3551 27.4142 19.2605 27.0205C19.2383 26.9279 19.2308 26.786 19.2308 26.123V20.9538C19.2308 20.2909 19.2383 20.149 19.2605 20.0563C19.3551 19.6625 19.6625 19.3551 20.0563 19.2605Z" fill="#201658"/>
</svg>
