<svg width="32" height="32" viewBox="0 0 32 32" fill="none" xmlns="http://www.w3.org/2000/svg">
<path fill-rule="evenodd" clip-rule="evenodd" d="M4.61682 5C3.17159 5 2 6.13215 2 7.52874V22.7011C2 24.0977 3.17159 25.2299 4.61682 25.2299H21.3369C21.3654 25.304 21.4124 25.3727 21.4773 25.4291L22.109 25.9786C22.2868 26.1332 22.5505 26.1517 22.7495 26.0235L22.9949 25.8654C23.1226 25.7831 23.2813 25.7591 23.429 25.7999L23.7795 25.8967C23.9812 25.9524 24.129 26.1191 24.1551 26.3202L24.1857 26.557C24.2184 26.8101 24.4411 27 24.705 27H25.6127C25.8767 27 26.0993 26.8101 26.1321 26.557L26.1627 26.3202C26.1887 26.1191 26.3365 25.9524 26.5382 25.8967L26.9095 25.7942C27.0451 25.7567 27.1905 25.7737 27.3129 25.8413L27.6903 26.0497C27.8952 26.1629 28.1532 26.1295 28.32 25.9682L28.9015 25.4064C29.0824 25.2316 29.106 24.956 28.9573 24.7548L28.7319 24.45C28.6256 24.3062 28.6047 24.1192 28.6768 23.9568L28.851 23.5639C28.9154 23.4186 29.0464 23.3108 29.2051 23.2725L29.6036 23.1762C29.8366 23.1199 30 22.9177 30 22.6856V21.8832C30 21.6282 29.8035 21.413 29.5416 21.3814L29.2512 21.3463C29.0667 21.324 28.9083 21.2088 28.835 21.0437L28.6768 20.6869C28.6047 20.5245 28.6256 20.3375 28.7319 20.1937L28.9573 19.8889C29.106 19.6877 29.0824 19.4121 28.9015 19.2373L28.3509 18.7052C28.2975 18.6537 28.2351 18.6153 28.1682 18.5906V7.52874C28.1682 6.13215 26.9966 5 25.5514 5H4.61682ZM27.3832 18.8539V7.52874C27.3832 6.55113 26.5631 5.75862 25.5514 5.75862H4.61682C3.60516 5.75862 2.78505 6.55113 2.78505 7.52874V22.7011C2.78505 23.6788 3.60516 24.4713 4.61682 24.4713H21.6292C21.6926 24.3474 21.7016 24.202 21.6501 24.0694L21.4756 23.6197C21.4073 23.4436 21.2435 23.3187 21.0505 23.2954L20.7762 23.2623C20.5143 23.2306 20.3178 23.0155 20.3178 22.7604V21.8317C20.3178 21.5996 20.4812 21.3973 20.7142 21.341L21.131 21.2403C21.2792 21.2045 21.4038 21.1079 21.4721 20.9759L21.6161 20.6976C21.7028 20.5301 21.6865 20.3299 21.5739 20.1775L21.3832 19.9195H16.1308V23.9655C16.1308 24.175 15.9551 24.3448 15.7383 24.3448C15.5215 24.3448 15.3458 24.175 15.3458 23.9655V19.9195H9.58878V23.9655C9.58878 24.175 9.41305 24.3448 9.19626 24.3448C8.97948 24.3448 8.80374 24.175 8.80374 23.9655V19.9195H3.30841C3.09163 19.9195 2.91589 19.7497 2.91589 19.5402C2.91589 19.3307 3.09163 19.1609 3.30841 19.1609H8.80374V14.8621H3.30841C3.09163 14.8621 2.91589 14.6922 2.91589 14.4828C2.91589 14.2733 3.09163 14.1034 3.30841 14.1034H8.80374L8.80374 9.8046H3.30841C3.09163 9.8046 2.91589 9.63477 2.91589 9.42529C2.91589 9.2158 3.09163 9.04598 3.30841 9.04598H8.80374V6.26437C8.80374 6.05488 8.97948 5.88506 9.19626 5.88506C9.41305 5.88506 9.58879 6.05488 9.58879 6.26437V9.04598H15.3458V6.26437C15.3458 6.05488 15.5215 5.88506 15.7383 5.88506C15.9551 5.88506 16.1308 6.05488 16.1308 6.26437V9.04598H21.8878V6.26437C21.8878 6.05488 22.0636 5.88506 22.2804 5.88506C22.4972 5.88506 22.6729 6.05488 22.6729 6.26437V9.04598H26.8598C27.0766 9.04598 27.2523 9.2158 27.2523 9.42529C27.2523 9.63477 27.0766 9.8046 26.8598 9.8046H22.6729V14.1034H26.8598C27.0766 14.1034 27.2523 14.2733 27.2523 14.4828C27.2523 14.6922 27.0766 14.8621 26.8598 14.8621H22.6729V18.7184L22.9642 18.8943C23.1096 18.9821 23.2902 18.9956 23.4478 18.9303L23.8362 18.7694C24.0071 18.6987 24.1263 18.5456 24.1494 18.3673L24.1857 18.0867C24.2184 17.8336 24.4411 17.6437 24.705 17.6437H25.5353C25.7754 17.6437 25.9848 17.8016 26.043 18.0268L26.1426 18.4118C26.1823 18.5651 26.2939 18.6917 26.4442 18.754L26.8508 18.9224C27.0189 18.992 27.2124 18.9718 27.3612 18.8691L27.3832 18.8539ZM21.8878 18.6897V14.8621H16.1308L16.1308 19.1609H21.4517L21.8558 18.7216C21.8661 18.7104 21.8768 18.6998 21.8878 18.6897ZM21.8878 14.1034V9.8046H16.1308V14.1034H21.8878ZM9.58879 9.8046H15.3458V14.1034H9.58878L9.58879 9.8046ZM9.58878 14.8621H15.3458L15.3458 19.1609H9.58878V14.8621ZM27.6449 22.4483C27.6449 23.7052 26.5904 24.7241 25.2897 24.7241C23.989 24.7241 22.9346 23.7052 22.9346 22.4483C22.9346 21.1914 23.989 20.1724 25.2897 20.1724C26.5904 20.1724 27.6449 21.1914 27.6449 22.4483Z" fill="#201658"/>
</svg>
