<svg width="32" height="32" viewBox="0 0 32 32" fill="none" xmlns="http://www.w3.org/2000/svg">
<path fill-rule="evenodd" clip-rule="evenodd" d="M21.5797 8.73757C19.4786 8.73757 17.7754 10.4733 17.7754 12.6143C17.7754 14.0049 18.4939 15.2245 19.5732 15.9086C17.4869 16.6577 15.9259 18.5421 15.6045 20.8337C14.7692 20.1478 13.8003 19.624 12.7438 19.3094C14.2895 18.464 15.3406 16.8014 15.3406 14.8887C15.3406 12.1196 13.1376 9.87475 10.4203 9.87475C7.70289 9.87475 5.5 12.1196 5.5 14.8887C5.5 16.8014 6.55108 18.464 8.09677 19.3094C4.66154 20.3325 2.15217 23.5664 2.15217 27.3976V28.5348C2.15217 28.7917 2.35657 29 2.6087 29C2.86083 29 3.06522 28.7917 3.06522 28.5348V27.3976C3.06522 23.2595 6.35618 19.9046 10.4165 19.9026H10.424C14.4844 19.9046 17.7754 23.2595 17.7754 27.3976V28.5348C17.7754 28.7917 17.9798 29 18.2319 29C18.484 29 18.6884 28.7917 18.6884 28.5348V27.3976C18.6884 25.1713 17.841 23.1466 16.457 21.6403C16.4945 18.7899 18.7737 16.4911 21.5797 16.4911C24.4091 16.4911 26.7029 18.8285 26.7029 21.7117V22.2803C26.7029 22.5372 26.9073 22.7455 27.1594 22.7455C27.4115 22.7455 27.6159 22.5372 27.6159 22.2803V21.7117C27.6159 19.0314 25.9336 16.7515 23.5862 15.9086C24.6656 15.2245 25.3841 14.0049 25.3841 12.6143C25.3841 10.4733 23.6808 8.73757 21.5797 8.73757ZM18.6884 12.6143C18.6884 10.9871 19.9828 9.66799 21.5797 9.66799C23.1766 9.66799 24.471 10.9871 24.471 12.6143C24.471 14.2415 23.1766 15.5606 21.5797 15.5606C19.9828 15.5606 18.6884 14.2415 18.6884 12.6143ZM14.4275 14.8887C14.4275 17.1424 12.6358 18.9697 10.4248 18.9722L10.4167 18.9722C8.20522 18.9702 6.41304 17.1427 6.41304 14.8887C6.41304 12.6334 8.20715 10.8052 10.4203 10.8052C12.6334 10.8052 14.4275 12.6334 14.4275 14.8887Z" fill="#201658"/>
<path d="M3.52174 3.93042H28.4783C28.8144 3.93042 29.087 4.20813 29.087 4.5507V19.4374C29.087 19.7799 28.8144 20.0577 28.4783 20.0577H27.8696V20.9881H28.4783C29.3187 20.9881 30 20.2938 30 19.4374V4.5507C30 3.69427 29.3187 3 28.4783 3H3.52174C2.68131 3 2 3.69427 2 4.5507V19.4374C2 20.2938 2.68131 20.9881 3.52174 20.9881H4.13043V20.0577H3.52174C3.18557 20.0577 2.91304 19.7799 2.91304 19.4374V4.5507C2.91304 4.20813 3.18557 3.93042 3.52174 3.93042Z" fill="#201658"/>
</svg>
