<svg width="32" height="32" viewBox="0 0 32 32" fill="none" xmlns="http://www.w3.org/2000/svg">
<path d="M10.0918 7.3802C10.0918 7.20071 10.2391 7.05521 10.4208 7.05521H12.395C12.5767 7.05521 12.724 7.20071 12.724 7.3802C12.724 7.55968 12.5767 7.70519 12.395 7.70519H10.4208C10.2391 7.70519 10.0918 7.55968 10.0918 7.3802Z" fill="#201658"/>
<path d="M10.0918 9.89888C10.0918 9.7194 10.2391 9.57389 10.4208 9.57389H13.053C13.2347 9.57389 13.382 9.7194 13.382 9.89888C13.382 10.0784 13.2347 10.2239 13.053 10.2239H10.4208C10.2391 10.2239 10.0918 10.0784 10.0918 9.89888Z" fill="#201658"/>
<path fill-rule="evenodd" clip-rule="evenodd" d="M9.33462 2.00822C8.02206 1.89866 6.95231 2.89803 6.95231 4.19139V14.4949C6.95231 15.5509 7.79551 16.5313 8.86921 16.667L9.1144 16.7007L9.11648 16.701C10.9119 16.9402 13.7193 17.8592 15.3086 18.7258C15.314 18.7288 15.3193 18.7316 15.3248 18.7343L15.3508 18.7473C15.5534 18.8565 15.7855 18.8993 15.993 18.8996C16.203 18.8999 16.441 18.8567 16.6462 18.7401C18.2347 17.8666 21.0451 16.941 22.8472 16.7014L23.1267 16.6676L23.1285 16.6674C24.2038 16.5334 25.0488 15.552 25.0488 14.4949V4.19991C25.0488 2.9004 23.9775 1.9183 22.6792 2.01507H22.6476C22.6334 2.01507 22.6192 2.01567 22.605 2.01688C20.7294 2.17718 17.9243 3.11535 16.3348 4.11253L16.3295 4.1159L16.1896 4.20617C16.1604 4.22323 16.092 4.24612 15.9969 4.24551C15.9022 4.24489 15.8359 4.22127 15.8092 4.20476L15.8028 4.20089L15.5925 4.07509C14.0032 3.08814 11.21 2.15977 9.33462 2.00822ZM22.7187 15.7347C20.9101 15.9746 18.2139 16.841 16.4872 17.7187V5.13976C16.5663 5.11183 16.6433 5.07592 16.716 5.03096L16.7238 5.026L16.8666 4.93391C18.3172 4.02476 20.9524 3.14207 22.6692 2.99004H22.6989C22.7128 2.99004 22.7267 2.98946 22.7406 2.98829C23.4684 2.92731 24.0617 3.45971 24.0617 4.19991V14.4949C24.0617 15.0752 23.5727 15.6289 23.0058 15.7L23.0049 15.7001L22.7245 15.734L22.7187 15.7347ZM15.2887 5.0332C15.3562 5.07455 15.4273 5.10813 15.5001 5.13482V17.7221C13.777 16.8464 11.063 15.9767 9.2494 15.7349L9.24844 15.7348L9.00243 15.7009L8.99616 15.7001C8.42896 15.6294 7.93939 15.0755 7.93939 14.4949V4.19139C7.93939 3.45498 8.52884 2.91918 9.25195 2.97976L9.25347 2.97989C10.9697 3.11841 13.6138 3.99686 15.0704 4.90247L15.0776 4.90689L15.2887 5.0332Z" fill="#201658"/>
<path d="M27.5529 20.3448C27.1808 20.1902 26.7483 20.1003 26.2944 20.1003C25.7845 20.1003 25.3014 20.2137 24.8696 20.4164L24.8898 20.4079L19.7802 22.6745C19.7825 22.6338 19.8036 22.5983 19.8036 22.5573C19.7905 21.36 18.8049 20.3944 17.5909 20.3944C17.5302 20.3944 17.4701 20.3968 17.4106 20.4016L17.4185 20.4011H14.0731L9.86434 19.1831C9.80952 19.1657 9.74646 19.1558 9.68105 19.1558H7.7598V18.4947C7.75972 18.133 7.46286 17.8398 7.09661 17.8396H3.66319C3.297 17.8397 3.00011 18.1329 3 18.4947V29.1573C3.00011 29.5191 3.29697 29.8123 3.66319 29.8124H7.09661C7.46286 29.8123 7.75972 29.5191 7.7598 29.1573V28.2799C9.36703 28.5279 10.8064 28.9276 12.17 29.4736L12.0379 29.4268C13.0552 29.79 14.2292 30 15.453 30H15.4714H15.4705H15.4858C16.9041 30 18.2564 29.7211 19.4896 29.2157L19.4203 29.2409C20.5195 28.7583 21.4526 28.2483 22.3354 27.6696L22.263 27.7142C22.5618 27.5316 22.8588 27.3491 23.1594 27.1734C24.6032 26.329 25.7638 25.5869 26.8104 24.8398C27.322 24.4803 27.7685 24.1248 28.1926 23.7454L28.18 23.7565C28.5096 23.4927 28.7729 23.1611 28.9501 22.7822L28.9572 22.7654C28.9842 22.6965 29 22.6167 29 22.5333C29 22.4838 28.9945 22.4356 28.984 22.3892L28.9848 22.3936C28.8559 21.5057 28.3172 20.7641 27.5672 20.352L27.5529 20.3448ZM6.43341 28.5023H4.32639V19.1489H6.43341V28.5023ZM27.2472 22.8251C26.8827 23.148 26.4864 23.4615 26.0729 23.7526L26.0314 23.7804C25.021 24.502 23.8932 25.2219 22.4822 26.0475C22.1748 26.2266 21.8708 26.4126 21.5651 26.5985C20.8099 27.0991 19.941 27.577 19.0325 27.9837L18.9176 28.0298C17.8986 28.4434 16.7157 28.6835 15.4761 28.6835C14.4121 28.6835 13.3899 28.5067 12.4381 28.181L12.5033 28.2003C11.1286 27.6343 9.52912 27.2 7.86301 26.9718L7.75986 26.9603V20.4659H9.58282L13.7916 21.6839C13.8465 21.7012 13.9095 21.7112 13.975 21.7112H17.4185C18.1992 21.7112 18.4772 22.1666 18.4772 22.5573C18.4772 22.948 18.1991 23.4034 17.4185 23.4034H11.398C11.0317 23.4034 10.7348 23.6967 10.7348 24.0585C10.7348 24.4203 11.0317 24.7135 11.398 24.7135H18.2822C18.3793 24.7135 18.4712 24.6921 18.5537 24.6539L18.5498 24.6555L25.4425 21.5986C25.6971 21.4831 25.9949 21.4158 26.3086 21.4158C26.5429 21.4158 26.7683 21.4533 26.979 21.5226L26.964 21.5184C27.3022 21.719 27.5459 22.0462 27.629 22.4321L27.6307 22.4413C27.5104 22.5798 27.385 22.7052 27.2515 22.8215L27.2472 22.8251Z" fill="#201658"/>
</svg>
