<svg width="32" height="32" viewBox="0 0 32 32" fill="none" xmlns="http://www.w3.org/2000/svg">
<path d="M15.7888 2L3.25343 7.49214C3.04157 7.58496 2.94315 7.83645 3.03361 8.05385C3.12407 8.27125 3.36914 8.37224 3.581 8.27942L15.7941 2.92845L28.4235 8.28138C28.6365 8.37162 28.8804 8.26766 28.9683 8.04918C29.0562 7.83069 28.9549 7.58042 28.742 7.49018L15.7888 2Z" fill="#201658"/>
<path fill-rule="evenodd" clip-rule="evenodd" d="M19.2562 9.02716H28.7218V30H3.13914V9.02716H12.6047C14.0102 9.02895 15.2421 9.80103 15.9304 10.9591C16.6187 9.80106 17.8506 9.02895 19.2562 9.02716ZM4.30198 26.382V28.8586H15.3491C15.3485 28.076 15.0429 27.7335 14.5491 27.2208C14.0509 26.7043 13.364 26.3842 12.6047 26.382H4.30198ZM15.3491 26.3434V13.0877C15.3471 11.5134 14.1196 10.2377 12.6047 10.2357H4.30198V25.1735H12.6053C13.6739 25.1766 14.6424 25.6225 15.3491 26.3434ZM16.5119 28.8586H27.559V26.382H19.2556C18.4963 26.3855 17.8094 26.7074 17.3119 27.2257C16.8181 27.7383 16.5125 28.0759 16.5119 28.8586ZM19.2561 10.2357C17.7414 10.2377 16.5139 11.5135 16.5119 13.0879V26.3434C17.2191 25.6222 18.1873 25.1765 19.2562 25.1734H27.559V10.2357H19.2561Z" fill="#201658"/>
</svg>
