<svg width="32" height="32" viewBox="0 0 32 32" fill="none" xmlns="http://www.w3.org/2000/svg">
<path d="M2 3.65814C2 2.74237 2.72383 2 3.61672 2H22.6132C23.5061 2 24.2299 2.74237 24.2299 3.65814V4.8741C24.2299 5.25567 23.9283 5.565 23.5563 5.565C23.1842 5.565 22.8827 5.25567 22.8827 4.8741V4.47339C22.8827 3.87051 22.4061 3.38178 21.8183 3.38178H4.96399C4.0711 3.38178 3.34727 4.12415 3.34727 5.03992V18.305C3.34727 19.2208 4.0711 19.9632 4.96399 19.9632H18.1672C18.5393 19.9632 18.8408 20.2725 18.8408 20.654C18.8408 21.0356 18.5393 21.3449 18.1672 21.3449H3.61672C2.72383 21.3449 2 20.6026 2 19.6868V3.65814Z" fill="#201658"/>
<path fill-rule="evenodd" clip-rule="evenodd" d="M23.5563 5.81372C22.0682 5.81372 20.8618 7.05103 20.8618 8.57728C20.8618 10.1035 22.0682 11.3408 23.5563 11.3408C25.0444 11.3408 26.2508 10.1035 26.2508 8.57728C26.2508 7.05103 25.0444 5.81372 23.5563 5.81372ZM22.209 8.57728C22.209 7.81412 22.8122 7.1955 23.5563 7.1955C24.3004 7.1955 24.9036 7.81412 24.9036 8.57728C24.9036 9.34044 24.3004 9.95906 23.5563 9.95906C22.8122 9.95906 22.209 9.34044 22.209 8.57728Z" fill="#201658"/>
<path fill-rule="evenodd" clip-rule="evenodd" d="M20.8617 11.6725C20.2478 11.6725 19.6672 11.9587 19.2837 12.4503L17.1959 15.1269H14.1254C13.0093 15.1269 12.1045 16.0549 12.1045 17.1996C12.1045 18.3443 13.0093 19.2723 14.1254 19.2723H18.1672C18.694 19.2723 19.1962 19.0615 19.5705 18.6912V28.1798C19.5705 29.1825 20.3676 30 21.3452 30C22.3229 30 23.12 29.1825 23.12 28.1798V23.2242H23.9749V28.1798C23.9749 29.1825 24.772 30 25.7496 30C26.7273 30 27.5244 29.1825 27.5244 28.1798V20.3139C27.6304 20.2669 27.7342 20.2119 27.8333 20.1525C28.161 19.9558 28.5103 19.6657 28.8302 19.2772C29.4771 18.492 30 17.3104 30 15.693C30 14.3782 29.4356 13.3793 28.7918 12.7196C28.4716 12.3915 28.1259 12.1405 27.806 11.9684C27.5071 11.8075 27.1619 11.6785 26.8508 11.6785H25.059C25.0076 11.6745 24.9558 11.6725 24.9036 11.6725H20.8617ZM20.3357 13.3135C20.4636 13.1497 20.6571 13.0543 20.8617 13.0543H24.9036C24.9254 13.0543 24.9469 13.0553 24.9679 13.0573L24.9992 13.0603H26.8508C26.8508 13.0603 26.8507 13.0604 26.8514 13.0606C26.8518 13.0607 26.8525 13.0609 26.8538 13.0612C26.8748 13.0654 26.9875 13.0884 27.1801 13.1919C27.3812 13.3002 27.6165 13.4686 27.8396 13.6971C28.2821 14.1506 28.6527 14.8135 28.6527 15.693C28.6527 16.9867 28.2407 17.8518 27.8011 18.3855C27.7082 18.4983 27.6138 18.5965 27.5214 18.6812V14.4482H26.1741V19.7041H26.1771V28.1798C26.1771 28.4194 25.9832 28.6182 25.7496 28.6182C25.5161 28.6182 25.3221 28.4194 25.3221 28.1798V21.8424H21.7727V28.1798C21.7727 28.4194 21.5788 28.6182 21.3452 28.6182C21.1117 28.6182 20.9177 28.4194 20.9177 28.1798V14.7793L18.6933 17.6312C18.5654 17.7951 18.3719 17.8905 18.1672 17.8905H14.1254C13.7534 17.8905 13.4518 17.5812 13.4518 17.1996C13.4518 16.818 13.7534 16.5087 14.1254 16.5087H17.8435L20.3357 13.3135Z" fill="#201658"/>
</svg>
