<svg width="32" height="33" viewBox="0 0 32 33" fill="none" xmlns="http://www.w3.org/2000/svg">
<path d="M9.38235 5.05263H6.44118C5.66113 5.05263 4.91303 5.37425 4.36145 5.94673C3.80987 6.51921 3.5 7.29565 3.5 8.10526V26.4211C3.5 27.2307 3.80987 28.0071 4.36145 28.5796C4.91303 29.1521 5.66113 29.4737 6.44118 29.4737H14.8191M9.38235 5.05263C9.38235 6.73855 10.6992 8.10526 12.3235 8.10526H15.2647C16.8891 8.10526 18.2059 6.73855 18.2059 5.05263M9.38235 5.05263C9.38235 3.36671 10.6992 2 12.3235 2H15.2647C16.8891 2 18.2059 3.36671 18.2059 5.05263M24.0882 15.7368V8.10526C24.0882 7.29565 23.7784 6.51921 23.2268 5.94673C22.6752 5.37425 21.9271 5.05263 21.1471 5.05263H18.2059M9.38235 14.2105H15.2647M9.38235 20.3158H13.7941M24.8235 27.1842L28.5 31M25.5588 24.1316C25.5588 26.239 23.9128 27.9474 21.8824 27.9474C19.8519 27.9474 18.2059 26.239 18.2059 24.1316C18.2059 22.0242 19.8519 20.3158 21.8824 20.3158C23.9128 20.3158 25.5588 22.0242 25.5588 24.1316Z" stroke="#201658" stroke-linecap="round" stroke-linejoin="round"/>
</svg>
