<svg width="56" height="57" viewBox="0 0 56 57" fill="none" xmlns="http://www.w3.org/2000/svg">
<path fill-rule="evenodd" clip-rule="evenodd" d="M5.23364 6.5C2.34318 6.5 0 8.76431 0 11.5575V41.9023C0 44.6955 2.34318 46.9598 5.23365 46.9598H38.6738C38.7309 47.108 38.8248 47.2454 38.9546 47.3583L40.2181 48.4572C40.5737 48.7664 41.1009 48.8034 41.4989 48.5469L41.9898 48.2307C42.2453 48.0661 42.5627 48.0182 42.8579 48.0998L43.559 48.2933C43.9625 48.4047 44.2581 48.7381 44.3101 49.1404L44.3714 49.614C44.4368 50.1202 44.8821 50.5 45.41 50.5H47.2255C47.7534 50.5 48.1987 50.1202 48.2641 49.614L48.3254 49.1404C48.3774 48.7381 48.6731 48.4047 49.0765 48.2933L49.819 48.0883C50.0901 48.0135 50.381 48.0475 50.6259 48.1827L51.3806 48.5995C51.7904 48.8258 52.3063 48.759 52.6401 48.4365L53.8029 47.3128C54.1647 46.9632 54.2119 46.412 53.9145 46.0096L53.4639 45.4C53.2513 45.1124 53.2095 44.7384 53.3535 44.4136L53.702 43.6278C53.8309 43.3373 54.0929 43.1217 54.4102 43.045L55.2071 42.8525C55.6731 42.7399 56 42.3353 56 41.8712V40.2665C56 39.7564 55.6069 39.3261 55.0831 39.2628L54.5023 39.1927C54.1333 39.1481 53.8165 38.9177 53.67 38.5874L53.3535 37.8738C53.2095 37.5489 53.2513 37.175 53.4639 36.8874L53.9145 36.2777C54.2119 35.8754 54.1647 35.3242 53.8029 34.9746L52.7018 33.9105C52.595 33.8074 52.4702 33.7307 52.3364 33.6812V11.5575C52.3364 8.76431 49.9933 6.5 47.1028 6.5H5.23364ZM50.7664 34.2077V11.5575C50.7664 9.60226 49.1261 8.01724 47.1028 8.01724H5.23364C3.21032 8.01724 1.57009 9.60226 1.57009 11.5575V41.9023C1.57009 43.8575 3.21032 45.4425 5.23365 45.4425H39.2584C39.3852 45.1949 39.4032 44.904 39.3003 44.6389L38.9512 43.7393C38.8146 43.3872 38.4871 43.1375 38.1009 43.0908L37.5524 43.0246C37.0286 42.9613 36.6355 42.531 36.6355 42.0209V40.1633C36.6355 39.6992 36.9624 39.2946 37.4284 39.182L38.2619 38.9806C38.5584 38.909 38.8076 38.7158 38.9443 38.4517L39.2322 37.8953C39.4056 37.5602 39.3731 37.1599 39.1477 36.855L38.7664 36.3391H28.2617V44.431C28.2617 44.85 27.9102 45.1897 27.4766 45.1897C27.0431 45.1897 26.6916 44.85 26.6916 44.431V36.3391H15.1776V44.431C15.1776 44.85 14.8261 45.1897 14.3925 45.1897C13.959 45.1897 13.6075 44.85 13.6075 44.431V36.3391H2.61682C2.18325 36.3391 1.83178 35.9994 1.83178 35.5805C1.83178 35.1615 2.18325 34.8218 2.61682 34.8218H13.6075V26.2241H2.61682C2.18325 26.2241 1.83178 25.8845 1.83178 25.4655C1.83178 25.0465 2.18325 24.7069 2.61682 24.7069H13.6075L13.6075 16.1092H2.61682C2.18325 16.1092 1.83178 15.7695 1.83178 15.3506C1.83178 14.9316 2.18325 14.592 2.61682 14.592H13.6075V9.02874C13.6075 8.60976 13.959 8.27012 14.3925 8.27012C14.8261 8.27012 15.1776 8.60976 15.1776 9.02874V14.592H26.6916V9.02874C26.6916 8.60976 27.0431 8.27012 27.4766 8.27012C27.9102 8.27012 28.2617 8.60976 28.2617 9.02874V14.592H39.7757V9.02874C39.7757 8.60976 40.1272 8.27012 40.5607 8.27012C40.9943 8.27012 41.3458 8.60976 41.3458 9.02874V14.592H49.7196C50.1532 14.592 50.5047 14.9316 50.5047 15.3506C50.5047 15.7695 50.1532 16.1092 49.7196 16.1092H41.3458V24.7069H49.7196C50.1532 24.7069 50.5047 25.0465 50.5047 25.4655C50.5047 25.8845 50.1532 26.2241 49.7196 26.2241H41.3458V33.9368L41.9284 34.2887C42.2192 34.4643 42.5804 34.4911 42.8955 34.3606L43.6724 34.0389C44.0142 33.8973 44.2526 33.5912 44.2988 33.2346L44.3714 32.6734C44.4368 32.1672 44.8821 31.7874 45.41 31.7874H47.0706C47.5509 31.7874 47.9696 32.1032 48.0861 32.5535L48.2853 33.3236C48.3646 33.6303 48.5878 33.8835 48.8884 34.008L49.7016 34.3447C50.0377 34.484 50.4247 34.4435 50.7223 34.2381L50.7664 34.2077ZM39.7757 33.8794V26.2241H28.2617L28.2617 34.8218H38.9034L39.7117 33.9431C39.7322 33.9208 39.7536 33.8996 39.7757 33.8794ZM39.7757 24.7069V16.1092H28.2617V24.7069H39.7757ZM15.1776 16.1092H26.6916V24.7069H15.1776L15.1776 16.1092ZM15.1776 26.2241H26.6916L26.6916 34.8218H15.1776V26.2241ZM51.2897 41.3966C51.2897 43.9104 49.1809 45.9483 46.5794 45.9483C43.978 45.9483 41.8692 43.9104 41.8692 41.3966C41.8692 38.8827 43.978 36.8448 46.5794 36.8448C49.1809 36.8448 51.2897 38.8827 51.2897 41.3966Z" fill="#94A8DE"/>
</svg>
